<svg xmlns="http://www.w3.org/2000/svg" width="99.94" height="100" viewBox="0 0 99.94 100">
  <metadata><?xpacket begin="﻿" id="W5M0MpCehiHzreSzNTczkc9d"?>
<x:xmpmeta xmlns:x="adobe:ns:meta/" x:xmptk="Adobe XMP Core 5.6-c138 79.159824, 2016/09/14-01:09:01        ">
   <rdf:RDF xmlns:rdf="http://www.w3.org/1999/02/22-rdf-syntax-ns#">
      <rdf:Description rdf:about=""/>
   </rdf:RDF>
</x:xmpmeta>
                                                                                                    
                                                                                                    
                                                                                                    
                                                                                                    
                                                                                                    
                                                                                                    
                                                                                                    
                                                                                                    
                                                                                                    
                                                                                                    
                                                                                                    
                                                                                                    
                                                                                                    
                                                                                                    
                                                                                                    
                                                                                                    
                                                                                                    
                                                                                                    
                                                                                                    
                                                                                                    
                           
<?xpacket end="w"?></metadata>
<defs>
    <style>
      .cls-1 {
        fill: #fff;
        fill-rule: evenodd;
      }
    </style>
  </defs>
  <path id="Icon" class="cls-1" d="M1488.29,6835.76l4.75-4.75a2.051,2.051,0,0,0,.6-0.67,49.935,49.935,0,1,0-68.69,18.99,50.811,50.811,0,0,0,4.94,2.5h-0.77a2.085,2.085,0,1,0,0,4.17h41.67a2.085,2.085,0,0,0,0-4.17h-0.9q2.085-.915,4.1-2.01a2.109,2.109,0,0,0,.72-0.46l4.99-5,11.02,11.03a2.088,2.088,0,0,0,2.95,0l5.64-5.65a2.094,2.094,0,0,0,0-2.95Zm-61.26,9.96a45.867,45.867,0,0,1,45.84-79.46,46.105,46.105,0,0,1,17.9,60.6l-23.79-6.38a2.084,2.084,0,0,0-2.55,2.55l6.36,23.77A46.187,46.187,0,0,1,1427.03,6845.72Zm65.16,5.24-11.01-11.03a2.088,2.088,0,0,0-2.95,0l-3.91,3.92-4.93-18.41,18.39,4.93-3.91,3.92a2.088,2.088,0,0,0,0,2.95l11.02,11.03Zm-68.9-34.65h3.3a18.247,18.247,0,0,0,6.05-.68q3-1.185,3-5.41a5.162,5.162,0,0,0-.93-3.28,4.948,4.948,0,0,0-2.81-1.62,4.259,4.259,0,0,0,2.35-1.69,5.7,5.7,0,0,0,.74-3.09,4.811,4.811,0,0,0-1.22-3.52,6.048,6.048,0,0,0-3.77-1.5,27.96,27.96,0,0,0-3.23-.18h-3.48q-3.105,0-3.11,3.27v14.55a3.282,3.282,0,0,0,.75,2.41A3.244,3.244,0,0,0,1423.29,6816.31Zm0.98-16.6a0.878,0.878,0,0,1,.89-1.07h2.05a7.9,7.9,0,0,1,1.96.18,2.721,2.721,0,0,1,1.26.78,2.624,2.624,0,0,1,.43,1.68,2.257,2.257,0,0,1-1.33,2.32,7.6,7.6,0,0,1-2.53.27h-2.73v-4.16h0Zm0,7.42h2.91a8.587,8.587,0,0,1,2.76.3,2.375,2.375,0,0,1,1.52,2.41c0,1.46-.48,2.38-1.43,2.76a7.02,7.02,0,0,1-2.43.3h-2.2a1.146,1.146,0,0,1-.87-0.27,1.228,1.228,0,0,1-.26-0.86v-4.64h0Zm44.45,8.32a0.744,0.744,0,0,0,.8.89h2.49a0.807,0.807,0,0,0,.59-0.23,0.892,0.892,0,0,0,.24-0.66v-7.96l6.53-10.63a2.225,2.225,0,0,0,.36-0.95,0.521,0.521,0,0,0-.36-0.51,15.534,15.534,0,0,0-3-.15,1.436,1.436,0,0,0-1.21.89c-2.08,3.43-3.5,5.86-4.25,7.31q-1.365-2.64-4.21-7.37a1.4,1.4,0,0,0-1.19-.83,21.343,21.343,0,0,0-3.32.12,0.593,0.593,0,0,0-.39.56,2.2,2.2,0,0,0,.39.98l6.53,10.7v7.84h0Zm-11.84-20.14h-2.4a0.719,0.719,0,0,0-.8.83v12.81a5.715,5.715,0,0,1-.66,3.2c-0.51.76-1.68,1.13-3.5,1.13-1.68,0-2.8-.39-3.35-1.18a5.816,5.816,0,0,1-.63-3.21v-12.75a0.674,0.674,0,0,0-.68-0.83h-2.61a0.723,0.723,0,0,0-.8.83V6808a15.971,15.971,0,0,0,.65,5.64c0.95,2.06,3.35,3.09,7.18,3.09,3.78,0,6.26-.96,7.42-2.88a6.038,6.038,0,0,0,.72-2.23,29.059,29.059,0,0,0,.17-3.68v-11.8A0.684,0.684,0,0,0,1456.88,6795.31Zm-16.63,46.93a37.582,37.582,0,0,1-26.52-26.54,2.087,2.087,0,0,0-4.03,1.09,41.788,41.788,0,0,0,29.47,29.48,2,2,0,0,0,.54.07A2.086,2.086,0,0,0,1440.25,6842.24Zm45.93-45.96a2.08,2.08,0,0,0,2.01,1.54,2,2,0,0,0,.54-0.07,2.081,2.081,0,0,0,1.47-2.55,41.789,41.789,0,0,0-29.46-29.49,2.086,2.086,0,1,0-1.08,4.03A37.634,37.634,0,0,1,1486.18,6796.28Zm-37.47,47.22c-0.53-.02-1.06-0.04-1.56-0.08a2.086,2.086,0,1,0-.32,4.16c0.57,0.04,1.15.07,1.73,0.09h0.08A2.086,2.086,0,0,0,1448.71,6843.5Zm2.49-75.02c0.53,0.02,1.05.05,1.56,0.08a0.808,0.808,0,0,0,.16.01,2.088,2.088,0,0,0,.15-4.17c-0.56-.04-1.14-0.07-1.73-0.09A2.086,2.086,0,0,0,1451.2,6768.48Z" transform="translate(-1400 -6756)"/>
</svg>
