<svg xmlns="http://www.w3.org/2000/svg" width="120" height="100" viewBox="0 0 120 100">
  <metadata><?xpacket begin="﻿" id="W5M0MpCehiHzreSzNTczkc9d"?>
<x:xmpmeta xmlns:x="adobe:ns:meta/" x:xmptk="Adobe XMP Core 5.6-c138 79.159824, 2016/09/14-01:09:01        ">
   <rdf:RDF xmlns:rdf="http://www.w3.org/1999/02/22-rdf-syntax-ns#">
      <rdf:Description rdf:about=""/>
   </rdf:RDF>
</x:xmpmeta>
                                                                                                    
                                                                                                    
                                                                                                    
                                                                                                    
                                                                                                    
                                                                                                    
                                                                                                    
                                                                                                    
                                                                                                    
                                                                                                    
                                                                                                    
                                                                                                    
                                                                                                    
                                                                                                    
                                                                                                    
                                                                                                    
                                                                                                    
                                                                                                    
                                                                                                    
                                                                                                    
                           
<?xpacket end="w"?></metadata>
<defs>
    <style>
      .cls-1 {
        fill: #fff;
        fill-rule: evenodd;
      }
    </style>
  </defs>
  <path id="Icon" class="cls-1" d="M529.953,6756.23H430.047A10.061,10.061,0,0,0,420,6766.28v54.9a10.061,10.061,0,0,0,10.047,10.05h33.984l-3.412,10.24a7.511,7.511,0,0,0-5.619,7.26v2.5h-7.5a2.5,2.5,0,0,0,0,5h65a2.5,2.5,0,1,0,0-5H505v-2.5a7.513,7.513,0,0,0-5.62-7.26l-3.412-10.24h33.984A10.061,10.061,0,0,0,540,6821.18v-54.9A10.061,10.061,0,0,0,529.953,6756.23Zm-32.453,90a2.5,2.5,0,0,1,2.5,2.5v2.5H460v-2.5a2.5,2.5,0,0,1,2.5-2.5h35Zm-31.531-5,3.333-10h21.4l3.333,10H465.969ZM535,6821.18a5.051,5.051,0,0,1-5.047,5.05H430.047a5.051,5.051,0,0,1-5.047-5.05v-2.45h94.969a2.5,2.5,0,0,0,0-5H425v-47.45a5.057,5.057,0,0,1,5.047-5.05h99.906a5.052,5.052,0,0,1,5.044,5H440.431a2.5,2.5,0,1,0,0,5H535v49.95h0Zm-69.812-23.91h0a2.5,2.5,0,0,0,2.292,2.07l19.063,1.26h0a2.492,2.492,0,0,0,2.637-2.17l1.6-12.63,0.479-3.78,3.326,0.01a2.49,2.49,0,0,0,.02-4.98l-5.529-.02a2.481,2.481,0,0,0-2.48,2.18l-0.757,5.97-1.305,10.29-14.771-.98-1.38-7.74h9.927a2.5,2.5,0,1,0,0-5H465.4a2.106,2.106,0,0,0-.43.04,2.493,2.493,0,0,0-2.031,2.89Zm6.23,5.67a2.5,2.5,0,1,0,2.5,2.5A2.5,2.5,0,0,0,471.418,6802.94Zm12.744,0a2.5,2.5,0,1,0,2.5,2.5A2.5,2.5,0,0,0,484.162,6802.94Zm-51.4-36.71h-1.123a2.5,2.5,0,1,0,0,5h1.123A2.5,2.5,0,1,0,432.765,6766.23Zm94.423,52.5h1.057a2.5,2.5,0,0,0,0-5h-1.057A2.5,2.5,0,0,0,527.188,6818.73Z" transform="translate(-420 -6756.22)"/>
</svg>
